<?xml version="1.0" standalone="no"?>
<!DOCTYPE svg PUBLIC "-//W3C//DTD SVG 20010904//EN"
 "http://www.w3.org/TR/2001/REC-SVG-20010904/DTD/svg10.dtd">
<svg version="1.0" xmlns="http://www.w3.org/2000/svg"
 width="1300.000000pt" height="1300.000000pt" viewBox="0 0 1300.000000 1300.000000"
 preserveAspectRatio="xMidYMid meet">
<metadata>
Created by potrace 1.11, written by Peter Selinger 2001-2013
</metadata>
<g transform="translate(0.000000,1300.000000) scale(0.100000,-0.100000)"
fill="#000000" stroke="none">
<path d="M2620 8881 c-50 -15 -86 -40 -132 -89 -81 -86 -78 -58 -78 -854 l0
-698 185 0 185 0 0 585 0 586 25 24 24 25 2389 0 c2338 0 2390 0 2413 -19 l24
-19 3 -326 3 -326 179 0 179 0 3 88 c2 48 2 249 1 447 -1 360 -1 361 -26 415
-28 63 -72 108 -137 142 l-45 23 -2585 2 c-1422 1 -2596 -2 -2610 -6z m2658
-147 c45 -51 12 -134 -53 -134 -47 0 -64 8 -80 40 -15 30 -6 89 18 108 34 27
82 22 115 -14z"/>
<path d="M7297 7626 c-78 -26 -130 -71 -173 -150 l-29 -51 -3 -1427 -2 -1428
132 0 c117 0 136 3 158 20 22 17 41 20 170 20 128 0 148 -2 175 -20 30 -20 50
-20 1520 -20 1470 0 1490 0 1520 20 27 18 47 20 175 20 129 0 148 -3 170 -20
22 -17 41 -20 158 -20 l132 0 0 1383 c0 945 -3 1402 -11 1443 -19 106 -72 173
-174 221 l-60 28 -1895 2 -1895 3 -68 -24z m1988 -101 c14 -13 25 -33 25 -45
0 -27 -43 -70 -70 -70 -29 0 -60 35 -60 68 0 28 20 54 50 65 25 9 30 8 55 -18z
m1802 -238 c17 -17 18 -79 21 -1176 2 -1130 2 -1159 -17 -1182 l-19 -24 -1809
-3 c-994 -1 -1818 0 -1830 3 -57 13 -53 -67 -53 1200 l0 1164 23 18 c22 17 98
18 1845 18 1735 0 1822 -1 1839 -18z"/>
<path d="M1348 7106 c-79 -28 -130 -81 -154 -162 -21 -72 -21 -2587 1 -2660
19 -66 67 -121 129 -150 l51 -24 1018 0 c1109 0 1047 -3 1124 56 18 14 45 49
60 77 l27 52 0 1315 0 1315 -22 50 c-31 68 -66 101 -129 125 -53 20 -77 20
-1061 20 -814 -1 -1014 -3 -1044 -14z m1077 -148 c31 -14 42 -50 26 -85 -10
-21 -9 -29 6 -47 18 -21 18 -21 -3 -3 -11 9 -36 17 -56 17 -45 0 -70 27 -66
71 2 24 10 37 28 46 31 16 33 16 65 1z m903 -305 c9 -13 12 -228 12 -993 0
-867 -2 -978 -16 -998 l-15 -22 -919 0 c-899 0 -920 0 -930 19 -7 13 -10 345
-10 1004 0 812 2 987 13 996 14 11 771 18 1492 14 326 -3 361 -4 373 -20z
m-773 -2153 c82 -51 79 -172 -6 -216 -41 -21 -269 -20 -310 1 -63 33 -86 112
-50 171 32 52 70 64 210 64 107 0 128 -3 156 -20z"/>
<path d="M2290 4472 c-67 -9 -93 -87 -44 -133 24 -23 32 -24 151 -24 124 0
125 0 149 28 29 34 31 66 4 100 -19 24 -26 26 -128 29 -59 2 -118 1 -132 0z"/>
<path d="M3720 5175 l0 -245 1625 0 1625 0 0 245 0 245 -1625 0 -1625 0 0
-245z"/>
<path d="M4740 4767 c0 -5 -51 -240 -80 -372 -13 -55 -25 -102 -27 -105 -3 -3
-53 -8 -112 -11 -156 -8 -222 -46 -245 -141 l-6 -28 949 0 949 0 -10 38 c-5
20 -24 51 -40 69 -44 46 -104 63 -219 63 l-98 0 -11 58 c-6 31 -29 139 -51
240 -21 100 -39 185 -39 187 0 3 -216 5 -480 5 -264 0 -480 -2 -480 -3z"/>
<path d="M6690 4420 c-16 -16 -20 -33 -20 -90 0 -111 31 -163 118 -201 42 -18
112 -19 2455 -19 2403 0 2412 1 2457 21 85 39 120 93 120 188 0 70 -14 107
-44 115 -38 10 -2096 7 -2116 -4 -10 -5 -23 -23 -28 -40 l-11 -30 -376 0 -376
0 -11 31 c-6 17 -21 34 -35 40 -14 5 -450 9 -1069 9 -1031 0 -1044 0 -1064
-20z m505 -56 c36 -14 38 -93 2 -116 -42 -27 -107 10 -107 59 0 50 51 77 105
57z m345 -14 c41 -41 10 -110 -50 -110 -37 0 -70 31 -70 65 0 34 33 65 70 65
17 0 39 -9 50 -20z m3870 -40 l0 -50 -155 0 -155 0 0 50 0 50 155 0 155 0 0
-50z"/>
</g>
</svg>
